<svg width="40" height="46" viewBox="0 0 40 46" fill="none" xmlns="http://www.w3.org/2000/svg">
<path d="M1.42857 11.7857H38.5714C39.3604 11.7857 40 11.1462 40 10.3572V6.78575C40 5.99673 39.3604 5.35718 38.5714 5.35718H1.42857C0.639554 5.35718 0 5.99673 0 6.78575V10.3572C0 11.1462 0.639554 11.7857 1.42857 11.7857ZM1.42857 26.0715H38.5714C39.3604 26.0715 40 25.4319 40 24.6429V21.0715C40 20.2824 39.3604 19.6429 38.5714 19.6429H1.42857C0.639554 19.6429 0 20.2824 0 21.0715V24.6429C0 25.4319 0.639554 26.0715 1.42857 26.0715ZM1.42857 40.3572H38.5714C39.3604 40.3572 40 39.7176 40 38.9286V35.3572C40 34.5682 39.3604 33.9286 38.5714 33.9286H1.42857C0.639554 33.9286 0 34.5682 0 35.3572V38.9286C0 39.7176 0.639554 40.3572 1.42857 40.3572Z" fill="white"/>
</svg>
